# xmcd
#
# Track frame offsets:
#	150
#	13875
#	24285
#	36113
#	47423
#	58703
#	70283
#	81841
#	93384
#	106757
#	117970
#	130285
#
# Disc length: 1890 seconds
#
# Revision: 0
# Processed by: cddbd v1.5.2PL0 Copyright (c) Steve Scherf et al.
# Submitted via: audiograbber 1.83.01
#
DISCID=9607600c
DTITLE=Hank Thompson - Golden Country Hits
DYEAR=1964
DGENRE=Country
TTITLE0=San Antonio Rose
TTITLE1=Pick Me Up On Your Way Down
TTITLE2=The Wild Side Of Life
TTITLE3=Shot-Gun Boogie
TTITLE4=Back Street Affair
TTITLE5=Detour
TTITLE6=Wabash Cannon Ball
TTITLE7=You Nearly Lose Your Mind
TTITLE8=Yesterday's Girl
TTITLE9=I'll Keep On Loving You
TTITLE10=I Don't Hurt Anymore
TTITLE11=Beer Barrel Polka
EXTD=
EXTT0=
EXTT1=
EXTT2=
EXTT3=
EXTT4=
EXTT5=
EXTT6=
EXTT7=
EXTT8=
EXTT9=
EXTT10=
EXTT11=
PLAYORDER=
